# xmcd CD database file
#
# Track frame offsets:
#	150
#	29113
#	61862
#	100390
#	136572
#	173623
#	204030
#	234893
#
# Disc length: 3399 seconds
#
# Revision: 0
# Processed by: cddbd v1.5.2PL0 Copyright (c) Steve Scherf et al.
# Submitted via: CDex 1.70beta3
#
DISCID=5a0d4508
DTITLE=Kondo Toshinori - KONDO・IMA Live Selection
DYEAR=1990
DGENRE=Jazz
TTITLE0=Last Lost
TTITLE1=Tea Girl
TTITLE2=Hoppo
TTITLE3=Timeless Man
TTITLE4=China Demonstration
TTITLE5=Fire Makes Darkness
TTITLE6=Brain War
TTITLE7=Stars Night
EXTD=YEAR: 1990
EXTT0=
EXTT1=
EXTT2=
EXTT3=
EXTT4=
EXTT5=
EXTT6=
EXTT7=
PLAYORDER=
